<svg id="Layer_1" data-name="Layer 1" xmlns="http://www.w3.org/2000/svg" viewBox="0 0 603.79 363.2"><path d="M0,67.32V297.84c0,21.41,14.6,40.27,35.86,46.32l266,19,266-19c21.26-6.05,35.86-24.91,35.86-46.32V67.32c0-26.66-22.37-48.28-50-48.28L304.8,0,50,19C22.37,19,0,40.66,0,67.32Z" fill="#3e6ff4"/><path d="M278.39,87.09l-26,37.15-26,37.15-26,37.15-26,37.15h50l-25.94,37.06a1.21,1.21,0,0,1-1,.52H98.6l26-37.15,26-37.15,26-37.15,26-37.15h-50l26.3-37.58Z" fill="#fff"/><path d="M320.16,124.67l-26.29,37.58h49.81l-25.9,37-25.9,37-25.34,36.21a1.87,1.87,0,0,1-1.54.8H216.05l26-37.15,26-37.15h-50l26.11-37.29,26.1-37.3,26.09-37.29H396l-25.93,37.07a1.22,1.22,0,0,1-1,.51Z" fill="#fff"/><path d="M437.53,124.67l-26.3,37.58H461L435.31,199H385.42l-26,37.15L334,272.47a1.89,1.89,0,0,1-1.54.8h-49L309.52,236l26.06-37.24,26.06-37.23,26.06-37.23,26.05-37.24h99.63l-25.94,37.07a1.19,1.19,0,0,1-1,.51Z" fill="#fff"/></svg>