<svg id="Layer_1" data-name="Layer 1" xmlns="http://www.w3.org/2000/svg" viewBox="0 0 706.8 425.17"><path d="M.34,78.77V348.69c0,25.08,17.1,47.16,42,54.24l311.51,22.3,311.51-22.3c24.9-7.08,42-29.16,42-54.24V78.77c0-31.22-26.19-56.53-58.51-56.53L357.25-.06,58.85,22.24C26.54,22.24.34,47.55.34,78.77Z" fill="#3e6ff4"/><path d="M326.32,101.92l-30.44,43.5-30.44,43.5L235,232.42l-30.44,43.5H263.1l-30.38,43.4a1.39,1.39,0,0,1-1.15.6H115.8l30.44-43.5,30.45-43.5,30.45-43.5,30.44-43.5H179.05l30.79-44Z" fill="#fff"/><path d="M375.23,145.92l-30.79,44h58.33l-30.33,43.33-30.33,43.34L312.45,319a2.22,2.22,0,0,1-1.81.94H253.33l30.44-43.5,30.45-43.5H255.7l30.57-43.67,30.56-43.66,30.56-43.67H464.06l-30.37,43.4a1.4,1.4,0,0,1-1.16.6Z" fill="#fff"/><path d="M512.66,145.92l-30.8,44h58.29l-30.09,43H451.64l-30.45,43.5L391.41,319a2.21,2.21,0,0,1-1.81.94H332.26l30.51-43.6,30.52-43.6,30.51-43.6,30.51-43.6,30.51-43.6H601.48l-30.37,43.4a1.42,1.42,0,0,1-1.16.6Z" fill="#fff"/></svg>